<mxfile host="app.diagrams.net" agent="Mozilla/5.0 (Windows NT 10.0; Win64; x64) AppleWebKit/537.36 (KHTML, like Gecko) Chrome/135.0.0.0 Safari/537.36" version="26.2.15">
  <diagram name="Page-1" id="-KuJ2lmXG9tcpwKg50PL">
    <mxGraphModel dx="1572" dy="1373" grid="1" gridSize="10" guides="1" tooltips="1" connect="1" arrows="1" fold="1" page="1" pageScale="1" pageWidth="850" pageHeight="1100" math="0" shadow="0">
      <root>
        <mxCell id="0" />
        <mxCell id="1" parent="0" />
        <mxCell id="llUvKgMDwDBZT2Ch1Zsn-1" value="&lt;p style=&quot;margin:0px;margin-top:4px;text-align:center;&quot;&gt;&lt;b&gt;Class BattleController&lt;/b&gt;&lt;/p&gt;&lt;hr size=&quot;1&quot; style=&quot;border-style:solid;&quot;&gt;&lt;p style=&quot;margin:0px;margin-left:4px;&quot;&gt;+ BattleState: State&lt;/p&gt;&lt;p style=&quot;margin:0px;margin-left:4px;&quot;&gt;+ TimeElapsed: float&lt;/p&gt;&lt;p style=&quot;margin:0px;margin-left:4px;&quot;&gt;+ PlayerVehicle: Vehicle&lt;/p&gt;&lt;p style=&quot;margin:0px;margin-left:4px;&quot;&gt;+ EnemyVehicle: Vehicle&lt;/p&gt;&lt;hr size=&quot;1&quot; style=&quot;border-style:solid;&quot;&gt;&lt;p style=&quot;margin:0px;margin-left:4px;&quot;&gt;+ StartBattle()&lt;/p&gt;&lt;p style=&quot;margin:0px;margin-left:4px;&quot;&gt;+ Update()&lt;/p&gt;&lt;p style=&quot;margin:0px;margin-left:4px;&quot;&gt;+ EndBattle()&lt;/p&gt;" style="verticalAlign=top;align=left;overflow=fill;html=1;whiteSpace=wrap;" vertex="1" parent="1">
          <mxGeometry x="150" y="90" width="160" height="210" as="geometry" />
        </mxCell>
        <mxCell id="llUvKgMDwDBZT2Ch1Zsn-2" value="enum BattleState" style="swimlane;fontStyle=0;childLayout=stackLayout;horizontal=1;startSize=26;fillColor=none;horizontalStack=0;resizeParent=1;resizeParentMax=0;resizeLast=0;collapsible=1;marginBottom=0;whiteSpace=wrap;html=1;" vertex="1" parent="1">
          <mxGeometry x="380" y="90" width="140" height="104" as="geometry" />
        </mxCell>
        <mxCell id="llUvKgMDwDBZT2Ch1Zsn-3" value="Idle" style="text;strokeColor=none;fillColor=none;align=left;verticalAlign=top;spacingLeft=4;spacingRight=4;overflow=hidden;rotatable=0;points=[[0,0.5],[1,0.5]];portConstraint=eastwest;whiteSpace=wrap;html=1;" vertex="1" parent="llUvKgMDwDBZT2Ch1Zsn-2">
          <mxGeometry y="26" width="140" height="26" as="geometry" />
        </mxCell>
        <mxCell id="llUvKgMDwDBZT2Ch1Zsn-4" value="Running" style="text;strokeColor=none;fillColor=none;align=left;verticalAlign=top;spacingLeft=4;spacingRight=4;overflow=hidden;rotatable=0;points=[[0,0.5],[1,0.5]];portConstraint=eastwest;whiteSpace=wrap;html=1;" vertex="1" parent="llUvKgMDwDBZT2Ch1Zsn-2">
          <mxGeometry y="52" width="140" height="26" as="geometry" />
        </mxCell>
        <mxCell id="llUvKgMDwDBZT2Ch1Zsn-5" value="End" style="text;strokeColor=none;fillColor=none;align=left;verticalAlign=top;spacingLeft=4;spacingRight=4;overflow=hidden;rotatable=0;points=[[0,0.5],[1,0.5]];portConstraint=eastwest;whiteSpace=wrap;html=1;" vertex="1" parent="llUvKgMDwDBZT2Ch1Zsn-2">
          <mxGeometry y="78" width="140" height="26" as="geometry" />
        </mxCell>
        <mxCell id="llUvKgMDwDBZT2Ch1Zsn-9" value="Class BasePart" style="swimlane;fontStyle=0;childLayout=stackLayout;horizontal=1;startSize=26;fillColor=none;horizontalStack=0;resizeParent=1;resizeParentMax=0;resizeLast=0;collapsible=1;marginBottom=0;whiteSpace=wrap;html=1;" vertex="1" parent="1">
          <mxGeometry x="270" y="680" width="140" height="150" as="geometry" />
        </mxCell>
        <mxCell id="llUvKgMDwDBZT2Ch1Zsn-10" value="+ PartID: int&lt;div&gt;+ PartName: string&lt;/div&gt;&lt;div&gt;+ PartStarts: int&lt;/div&gt;&lt;div&gt;+ Level: int&lt;/div&gt;&lt;div&gt;+ HP: int&lt;/div&gt;&lt;div&gt;+ ATK: int&lt;/div&gt;&lt;div&gt;+ EnergyCost: int&lt;/div&gt;" style="text;strokeColor=none;fillColor=none;align=left;verticalAlign=top;spacingLeft=4;spacingRight=4;overflow=hidden;rotatable=0;points=[[0,0.5],[1,0.5]];portConstraint=eastwest;whiteSpace=wrap;html=1;" vertex="1" parent="llUvKgMDwDBZT2Ch1Zsn-9">
          <mxGeometry y="26" width="140" height="124" as="geometry" />
        </mxCell>
        <mxCell id="llUvKgMDwDBZT2Ch1Zsn-40" style="edgeStyle=orthogonalEdgeStyle;rounded=0;orthogonalLoop=1;jettySize=auto;html=1;" edge="1" parent="1" source="llUvKgMDwDBZT2Ch1Zsn-13" target="llUvKgMDwDBZT2Ch1Zsn-9">
          <mxGeometry relative="1" as="geometry">
            <mxPoint x="500" y="750" as="targetPoint" />
            <Array as="points">
              <mxPoint x="520" y="580" />
              <mxPoint x="520" y="755" />
            </Array>
          </mxGeometry>
        </mxCell>
        <mxCell id="llUvKgMDwDBZT2Ch1Zsn-13" value="ClassWeapon" style="swimlane;fontStyle=1;align=center;verticalAlign=top;childLayout=stackLayout;horizontal=1;startSize=26;horizontalStack=0;resizeParent=1;resizeParentMax=0;resizeLast=0;collapsible=1;marginBottom=0;whiteSpace=wrap;html=1;" vertex="1" parent="1">
          <mxGeometry x="630" y="490" width="160" height="180" as="geometry" />
        </mxCell>
        <mxCell id="llUvKgMDwDBZT2Ch1Zsn-14" value="+ WeaponType: WType&lt;div&gt;+ AttackInterval: float&lt;/div&gt;&lt;div&gt;+ Bullet: GameObject&lt;/div&gt;" style="text;strokeColor=none;fillColor=none;align=left;verticalAlign=top;spacingLeft=4;spacingRight=4;overflow=hidden;rotatable=0;points=[[0,0.5],[1,0.5]];portConstraint=eastwest;whiteSpace=wrap;html=1;" vertex="1" parent="llUvKgMDwDBZT2Ch1Zsn-13">
          <mxGeometry y="26" width="160" height="84" as="geometry" />
        </mxCell>
        <mxCell id="llUvKgMDwDBZT2Ch1Zsn-15" value="" style="line;strokeWidth=1;fillColor=none;align=left;verticalAlign=middle;spacingTop=-1;spacingLeft=3;spacingRight=3;rotatable=0;labelPosition=right;points=[];portConstraint=eastwest;strokeColor=inherit;" vertex="1" parent="llUvKgMDwDBZT2Ch1Zsn-13">
          <mxGeometry y="110" width="160" height="8" as="geometry" />
        </mxCell>
        <mxCell id="llUvKgMDwDBZT2Ch1Zsn-16" value="Attack()&lt;div&gt;&lt;div&gt;DealDamage(Vehicle target, float amount)&lt;br&gt;&lt;div&gt;&lt;br&gt;&lt;/div&gt;&lt;/div&gt;&lt;/div&gt;" style="text;strokeColor=none;fillColor=none;align=left;verticalAlign=top;spacingLeft=4;spacingRight=4;overflow=hidden;rotatable=0;points=[[0,0.5],[1,0.5]];portConstraint=eastwest;whiteSpace=wrap;html=1;" vertex="1" parent="llUvKgMDwDBZT2Ch1Zsn-13">
          <mxGeometry y="118" width="160" height="62" as="geometry" />
        </mxCell>
        <mxCell id="llUvKgMDwDBZT2Ch1Zsn-19" value="Class Vehicle" style="swimlane;fontStyle=1;align=center;verticalAlign=top;childLayout=stackLayout;horizontal=1;startSize=26;horizontalStack=0;resizeParent=1;resizeParentMax=0;resizeLast=0;collapsible=1;marginBottom=0;whiteSpace=wrap;html=1;" vertex="1" parent="1">
          <mxGeometry x="-60" y="440" width="180" height="200" as="geometry" />
        </mxCell>
        <mxCell id="llUvKgMDwDBZT2Ch1Zsn-20" value="+ ListPart: List&amp;lt;BasePart&amp;gt;&lt;div&gt;+ HP: float&lt;/div&gt;&lt;div&gt;+ Damage: float&lt;/div&gt;&lt;div&gt;+ Speed: float&lt;/div&gt;&lt;div&gt;+ IsDestroyed: bool&lt;/div&gt;" style="text;strokeColor=none;fillColor=none;align=left;verticalAlign=top;spacingLeft=4;spacingRight=4;overflow=hidden;rotatable=0;points=[[0,0.5],[1,0.5]];portConstraint=eastwest;whiteSpace=wrap;html=1;" vertex="1" parent="llUvKgMDwDBZT2Ch1Zsn-19">
          <mxGeometry y="26" width="180" height="84" as="geometry" />
        </mxCell>
        <mxCell id="llUvKgMDwDBZT2Ch1Zsn-21" value="" style="line;strokeWidth=1;fillColor=none;align=left;verticalAlign=middle;spacingTop=-1;spacingLeft=3;spacingRight=3;rotatable=0;labelPosition=right;points=[];portConstraint=eastwest;strokeColor=inherit;" vertex="1" parent="llUvKgMDwDBZT2Ch1Zsn-19">
          <mxGeometry y="110" width="180" height="8" as="geometry" />
        </mxCell>
        <mxCell id="llUvKgMDwDBZT2Ch1Zsn-22" value="OnBattleStart()&lt;div&gt;OnTakeDamage(float amount)&lt;br&gt;&lt;div&gt;OnDestroyed()&lt;/div&gt;&lt;/div&gt;" style="text;strokeColor=none;fillColor=none;align=left;verticalAlign=top;spacingLeft=4;spacingRight=4;overflow=hidden;rotatable=0;points=[[0,0.5],[1,0.5]];portConstraint=eastwest;whiteSpace=wrap;html=1;" vertex="1" parent="llUvKgMDwDBZT2Ch1Zsn-19">
          <mxGeometry y="118" width="180" height="82" as="geometry" />
        </mxCell>
        <mxCell id="llUvKgMDwDBZT2Ch1Zsn-30" style="edgeStyle=orthogonalEdgeStyle;rounded=0;orthogonalLoop=1;jettySize=auto;html=1;" edge="1" parent="1" source="llUvKgMDwDBZT2Ch1Zsn-23" target="llUvKgMDwDBZT2Ch1Zsn-9">
          <mxGeometry relative="1" as="geometry" />
        </mxCell>
        <mxCell id="llUvKgMDwDBZT2Ch1Zsn-23" value="ClassWheel" style="swimlane;fontStyle=1;align=center;verticalAlign=top;childLayout=stackLayout;horizontal=1;startSize=26;horizontalStack=0;resizeParent=1;resizeParentMax=0;resizeLast=0;collapsible=1;marginBottom=0;whiteSpace=wrap;html=1;" vertex="1" parent="1">
          <mxGeometry x="630" y="700" width="160" height="110" as="geometry" />
        </mxCell>
        <mxCell id="llUvKgMDwDBZT2Ch1Zsn-24" value="+ Speed: float" style="text;strokeColor=none;fillColor=none;align=left;verticalAlign=top;spacingLeft=4;spacingRight=4;overflow=hidden;rotatable=0;points=[[0,0.5],[1,0.5]];portConstraint=eastwest;whiteSpace=wrap;html=1;" vertex="1" parent="llUvKgMDwDBZT2Ch1Zsn-23">
          <mxGeometry y="26" width="160" height="34" as="geometry" />
        </mxCell>
        <mxCell id="llUvKgMDwDBZT2Ch1Zsn-25" value="" style="line;strokeWidth=1;fillColor=none;align=left;verticalAlign=middle;spacingTop=-1;spacingLeft=3;spacingRight=3;rotatable=0;labelPosition=right;points=[];portConstraint=eastwest;strokeColor=inherit;" vertex="1" parent="llUvKgMDwDBZT2Ch1Zsn-23">
          <mxGeometry y="60" width="160" height="8" as="geometry" />
        </mxCell>
        <mxCell id="llUvKgMDwDBZT2Ch1Zsn-26" value="&lt;div&gt;&lt;div&gt;&lt;div&gt;StartMoveToTarget()&lt;/div&gt;&lt;/div&gt;&lt;/div&gt;" style="text;strokeColor=none;fillColor=none;align=left;verticalAlign=top;spacingLeft=4;spacingRight=4;overflow=hidden;rotatable=0;points=[[0,0.5],[1,0.5]];portConstraint=eastwest;whiteSpace=wrap;html=1;" vertex="1" parent="llUvKgMDwDBZT2Ch1Zsn-23">
          <mxGeometry y="68" width="160" height="42" as="geometry" />
        </mxCell>
        <mxCell id="llUvKgMDwDBZT2Ch1Zsn-39" style="edgeStyle=orthogonalEdgeStyle;rounded=0;orthogonalLoop=1;jettySize=auto;html=1;" edge="1" parent="1" source="llUvKgMDwDBZT2Ch1Zsn-32" target="llUvKgMDwDBZT2Ch1Zsn-9">
          <mxGeometry relative="1" as="geometry">
            <mxPoint x="500" y="750" as="targetPoint" />
          </mxGeometry>
        </mxCell>
        <mxCell id="llUvKgMDwDBZT2Ch1Zsn-32" value="ClassBody" style="swimlane;fontStyle=1;align=center;verticalAlign=top;childLayout=stackLayout;horizontal=1;startSize=26;horizontalStack=0;resizeParent=1;resizeParentMax=0;resizeLast=0;collapsible=1;marginBottom=0;whiteSpace=wrap;html=1;" vertex="1" parent="1">
          <mxGeometry x="630" y="830" width="160" height="118" as="geometry" />
        </mxCell>
        <mxCell id="llUvKgMDwDBZT2Ch1Zsn-33" value="+ EnergyPoolBase" style="text;strokeColor=none;fillColor=none;align=left;verticalAlign=top;spacingLeft=4;spacingRight=4;overflow=hidden;rotatable=0;points=[[0,0.5],[1,0.5]];portConstraint=eastwest;whiteSpace=wrap;html=1;" vertex="1" parent="llUvKgMDwDBZT2Ch1Zsn-32">
          <mxGeometry y="26" width="160" height="84" as="geometry" />
        </mxCell>
        <mxCell id="llUvKgMDwDBZT2Ch1Zsn-34" value="" style="line;strokeWidth=1;fillColor=none;align=left;verticalAlign=middle;spacingTop=-1;spacingLeft=3;spacingRight=3;rotatable=0;labelPosition=right;points=[];portConstraint=eastwest;strokeColor=inherit;" vertex="1" parent="llUvKgMDwDBZT2Ch1Zsn-32">
          <mxGeometry y="110" width="160" height="8" as="geometry" />
        </mxCell>
        <mxCell id="llUvKgMDwDBZT2Ch1Zsn-41" style="edgeStyle=orthogonalEdgeStyle;rounded=0;orthogonalLoop=1;jettySize=auto;html=1;entryX=0.978;entryY=0.19;entryDx=0;entryDy=0;entryPerimeter=0;" edge="1" parent="1" source="llUvKgMDwDBZT2Ch1Zsn-10" target="llUvKgMDwDBZT2Ch1Zsn-20">
          <mxGeometry relative="1" as="geometry" />
        </mxCell>
        <mxCell id="llUvKgMDwDBZT2Ch1Zsn-42" style="edgeStyle=orthogonalEdgeStyle;rounded=0;orthogonalLoop=1;jettySize=auto;html=1;entryX=0.006;entryY=0.32;entryDx=0;entryDy=0;entryPerimeter=0;exitX=0.5;exitY=0;exitDx=0;exitDy=0;" edge="1" parent="1" source="llUvKgMDwDBZT2Ch1Zsn-19" target="llUvKgMDwDBZT2Ch1Zsn-1">
          <mxGeometry relative="1" as="geometry" />
        </mxCell>
        <mxCell id="llUvKgMDwDBZT2Ch1Zsn-43" style="edgeStyle=orthogonalEdgeStyle;rounded=0;orthogonalLoop=1;jettySize=auto;html=1;exitX=0.5;exitY=0;exitDx=0;exitDy=0;entryX=-0.012;entryY=0.382;entryDx=0;entryDy=0;entryPerimeter=0;" edge="1" parent="1" source="llUvKgMDwDBZT2Ch1Zsn-19" target="llUvKgMDwDBZT2Ch1Zsn-1">
          <mxGeometry relative="1" as="geometry">
            <mxPoint x="160" y="171" as="targetPoint" />
            <Array as="points">
              <mxPoint x="30" y="170" />
            </Array>
          </mxGeometry>
        </mxCell>
        <mxCell id="llUvKgMDwDBZT2Ch1Zsn-44" style="edgeStyle=orthogonalEdgeStyle;rounded=0;orthogonalLoop=1;jettySize=auto;html=1;entryX=0.987;entryY=0.168;entryDx=0;entryDy=0;entryPerimeter=0;" edge="1" parent="1" source="llUvKgMDwDBZT2Ch1Zsn-2" target="llUvKgMDwDBZT2Ch1Zsn-1">
          <mxGeometry relative="1" as="geometry" />
        </mxCell>
      </root>
    </mxGraphModel>
  </diagram>
</mxfile>
